HIERARCHY
ROOT root
{
	OFFSET 0.000000 0.000000 0.000000
	CHANNELS 6 Xposition Yposition Zposition Zrotation Yrotation Xrotation
	JOINT lhip
	{
		OFFSET 0.058581 -0.082280 -0.017664
		CHANNELS 3 Zrotation Yrotation Xrotation
		JOINT lknee
		{
			OFFSET 0.043451 -0.386469 0.008037
			CHANNELS 3 Zrotation Yrotation Xrotation
			JOINT lankle
			{
				OFFSET -0.014790 -0.426874 -0.037428
				CHANNELS 3 Zrotation Yrotation Xrotation
				JOINT ltoe
				{
					OFFSET 0.041054 -0.060286 0.122042
					CHANNELS 3 Zrotation Yrotation Xrotation
					End Site
					{
						OFFSET 0.000000 0.000000 0.000000
					}
				}
			}
		}
	}
	JOINT rhip
	{
		OFFSET -0.060310 -0.090513 -0.013543
		CHANNELS 3 Zrotation Yrotation Xrotation
		JOINT rknee
		{
			OFFSET -0.043257 -0.383688 -0.004843
			CHANNELS 3 Zrotation Yrotation Xrotation
			JOINT rankle
			{
				OFFSET 0.019056 -0.420046 -0.034562
				CHANNELS 3 Zrotation Yrotation Xrotation
				JOINT rtoe
				{
					OFFSET -0.034840 -0.062106 0.130323
					CHANNELS 3 Zrotation Yrotation Xrotation
					End Site
					{
						OFFSET 0.000000 0.000000 0.000000
					}
				}
			}
		}
	}
	JOINT lowerback
	{
		OFFSET 0.004439 0.124404 -0.038385
		CHANNELS 3 Zrotation Yrotation Xrotation
		JOINT upperback
		{
			OFFSET 0.004488 0.137956 0.026820
			CHANNELS 3 Zrotation Yrotation Xrotation
			JOINT chest
			{
				OFFSET -0.002265 0.056032 0.002855
				CHANNELS 3 Zrotation Yrotation Xrotation
				JOINT lowerneck
				{
					OFFSET -0.013390 0.211636 -0.033468
					CHANNELS 3 Zrotation Yrotation Xrotation
					JOINT upperneck
					{
						OFFSET 0.010113 0.088937 0.050410
						CHANNELS 3 Zrotation Yrotation Xrotation
						End Site
						{
							OFFSET 0.000000 0.000000 0.000000
						}
					}
				}
				JOINT lclavicle
				{
					OFFSET 0.071702 0.114000 -0.018898
					CHANNELS 3 Zrotation Yrotation Xrotation
					JOINT lshoulder
					{
						OFFSET 0.122921 0.045205 -0.019046
						CHANNELS 3 Zrotation Yrotation Xrotation
						JOINT lelbow
						{
							OFFSET 0.255332 -0.015649 -0.022946
							CHANNELS 3 Zrotation Yrotation Xrotation
							JOINT lwrist
							{
								OFFSET 0.265709 0.012698 -0.007375
								CHANNELS 3 Zrotation Yrotation Xrotation
								End Site
								{
									OFFSET 0.000000 0.000000 0.000000
								}
							}
						}
					}
				}
				JOINT rclavicle
				{
					OFFSET -0.082954 0.112472 -0.023707
					CHANNELS 3 Zrotation Yrotation Xrotation
					JOINT rshoulder
					{
						OFFSET -0.113228 0.046853 -0.008472
						CHANNELS 3 Zrotation Yrotation Xrotation
						JOINT relbow
						{
							OFFSET -0.260127 -0.014369 -0.031269
							CHANNELS 3 Zrotation Yrotation Xrotation
							JOINT rwrist
							{
								OFFSET -0.269108 0.006794 -0.006027
								CHANNELS 3 Zrotation Yrotation Xrotation
								End Site
								{
									OFFSET 0.000000 0.000000 0.000000
								}
							}
						}
					}
				}
			}
		}
	}
}
MOTION
Frames: 13
Frame Time: 0.033333
0.087432 0.265191 1.025494 105.653138 0.310184 91.624659 4.287633 -0.150404 -5.665837 -2.650884 -13.828890 10.257176 -2.548516 10.354894 -6.492979 0.000000 -0.000000 0.000000 -3.680894 -9.481885 -4.713185 0.557872 -7.773096 11.288805 5.052053 -15.751910 -1.944393 0.000000 -0.000000 0.000000 -0.079284 4.106452 6.700028 4.355093 -0.685038 -7.417192 7.188701 0.380031 5.892563 -6.779905 15.352045 -5.258207 -2.417491 -13.686436 -34.857738 28.659014 3.812743 -12.961856 8.959277 -5.051592 -33.774102 29.063354 -16.346019 -40.635700 -44.219140 -4.189104 6.794381 -12.807891 6.029414 -8.250696 15.363032 -8.816298 -10.266374 -56.732899 73.723029 -48.187001 46.239275 13.275185 -15.590934 
0.086504 0.265075 1.025944 105.184707 0.355576 91.845334 4.230160 -0.023185 -5.658989 -2.320486 -13.443954 9.786544 -2.393299 10.286082 -6.206102 0.000000 -0.000000 0.000000 -3.605284 -9.409968 -5.046368 0.550475 -7.577096 11.208014 4.986999 -15.424234 -1.620199 0.000000 -0.000000 0.000000 -0.008532 4.150776 7.000129 4.492152 -0.787719 -7.483226 7.090906 0.238887 5.997910 -6.794766 15.353798 -5.002891 -2.386862 -13.802296 -34.818049 28.664987 3.776950 -13.474312 8.581426 -5.160835 -33.233031 29.237533 -16.530006 -39.924454 -43.978520 -4.680676 6.048432 -12.915172 6.200272 -8.275680 15.260141 -8.940686 -10.254841 -57.502882 73.824697 -48.695480 46.138745 13.446571 -15.773503 
0.085401 0.264720 1.026132 104.731641 0.406598 92.074575 4.207737 0.111861 -5.634247 -2.010787 -13.169136 9.228357 -2.384175 10.294000 -5.937890 0.000000 -0.000000 0.000000 -3.443786 -9.248284 -5.540310 0.434954 -7.264971 11.319119 5.074764 -15.316811 -1.342088 0.000000 -0.000000 0.000000 0.036222 4.074004 7.146933 4.490546 -0.773245 -7.222100 7.109686 0.172049 6.003556 -6.713004 15.183402 -4.674443 -2.313516 -13.948262 -34.890466 28.645273 3.679305 -13.911615 8.380447 -5.428607 -32.904982 29.523170 -16.714598 -39.495400 -43.906206 -4.328785 6.504696 -13.081818 6.153277 -8.297908 15.020904 -8.881174 -10.230744 -57.898265 73.899784 -48.911326 46.196411 13.444512 -15.862687 
0.083809 0.264417 1.026363 104.219520 0.456716 92.277616 4.136943 0.174339 -5.626412 -1.642209 -12.904953 8.730503 -2.414683 10.427355 -5.676432 0.000000 -0.000000 0.000000 -3.249227 -8.939834 -5.959149 0.279621 -7.002344 11.278163 4.920066 -15.298920 -1.009043 0.000000 -0.000000 0.000000 0.151628 3.881493 7.567875 4.431381 -0.852869 -7.007447 7.038015 0.151379 5.967270 -6.686287 15.020870 -4.333002 -2.165138 -13.961390 -34.874762 28.677768 3.496868 -13.822004 8.184937 -5.535019 -32.698998 30.050195 -17.223649 -38.831134 -43.851386 -3.804231 7.164303 -13.355247 6.092101 -8.355346 14.794614 -8.694138 -10.229859 -58.214489 73.775514 -49.133725 46.333143 13.456360 -15.789929 
0.082715 0.263993 1.026548 103.944667 0.489711 92.431524 4.123823 0.277253 -5.665755 -1.441998 -12.762507 8.407658 -2.468489 10.417153 -5.476567 0.000000 -0.000000 0.000000 -3.090398 -8.771815 -6.222453 0.167458 -6.855077 11.203799 4.849360 -15.308779 -0.804180 0.000000 -0.000000 0.000000 0.232747 3.737790 7.807835 4.350446 -0.901756 -6.915023 6.984021 0.118611 5.943063 -6.605767 14.956718 -4.101135 -2.189578 -14.078602 -34.850057 28.747321 3.385312 -13.736254 8.029878 -5.722217 -32.619311 30.454633 -17.402508 -38.508868 -43.813391 -3.519026 7.669290 -13.630922 6.118874 -8.311601 14.871459 -8.692961 -10.263805 -58.764103 73.638935 -49.428042 46.433723 13.410446 -15.908685 
0.081295 0.263313 1.026715 103.489357 0.494461 92.610355 4.058392 0.331594 -5.656772 -1.131424 -12.430643 7.941656 -2.536491 10.446977 -5.210839 0.000000 -0.000000 0.000000 -2.956567 -8.644938 -6.607907 0.048448 -6.634077 11.173582 4.810333 -15.198794 -0.637616 0.000000 -0.000000 0.000000 0.256431 3.621005 8.064681 4.329744 -1.003572 -6.648468 6.940678 0.048657 5.877105 -6.765866 14.792410 -3.852878 -2.195670 -14.088298 -34.802135 28.714633 3.344751 -13.729481 7.784113 -6.011871 -32.382969 30.833087 -17.860696 -38.233746 -43.844992 -3.173563 7.955631 -13.843255 6.075978 -8.337294 14.617306 -8.400950 -10.346321 -59.298751 73.397736 -50.015025 46.511461 13.476065 -15.862595 
0.079731 0.262559 1.026841 103.143185 0.522671 92.802317 4.037983 0.439468 -5.689715 -0.854053 -12.106701 7.456664 -2.596303 10.367018 -4.940798 0.000000 -0.000000 0.000000 -2.765920 -8.472842 -6.916974 -0.100954 -6.506204 11.006149 4.742193 -15.152535 -0.361040 0.000000 -0.000000 0.000000 0.339965 3.423029 8.300266 4.271401 -1.153547 -6.484963 6.815821 -0.079867 5.986509 -6.790178 14.509360 -3.656580 -2.106376 -14.069830 -34.800285 28.797357 3.106247 -13.651898 7.610958 -5.945982 -32.237332 31.163939 -18.293669 -37.915858 -43.786438 -3.003972 8.199160 -13.976077 6.078027 -8.460940 14.349055 -8.166447 -10.489441 -59.977581 73.249189 -50.753860 46.462973 13.467029 -15.864444 
0.078058 0.261615 1.026975 102.694051 0.544604 92.946940 3.995538 0.605055 -5.709503 -0.592408 -11.848054 7.069671 -2.656155 10.404680 -4.609547 0.000000 -0.000000 0.000000 -2.574767 -8.219510 -7.217911 -0.249308 -6.346433 10.842651 4.668025 -15.161802 -0.178678 0.000000 -0.000000 0.000000 0.382809 3.190245 8.646082 4.209582 -1.273642 -6.283697 6.757686 -0.106960 5.895392 -6.832665 14.105563 -3.339738 -2.051996 -14.102191 -34.709807 28.719299 2.819366 -13.581825 7.511273 -5.996340 -32.081661 31.587510 -18.825685 -37.523432 -43.803155 -2.677927 8.499614 -14.149941 6.126196 -8.413152 14.144614 -7.882500 -10.790644 -60.564259 73.094031 -51.455021 46.450242 13.318142 -15.996584 
0.076578 0.260668 1.026957 102.155021 0.556868 93.082698 3.966197 0.738416 -5.563674 -0.317586 -11.506277 6.435801 -2.632553 10.513114 -4.278827 0.000000 -0.000000 0.000000 -2.417906 -8.060892 -7.471508 -0.333540 -6.071868 10.629121 4.567295 -15.087060 0.011159 0.000000 -0.000000 0.000000 0.415072 3.066507 8.870498 4.119516 -1.353697 -6.021814 6.683278 -0.188547 5.888412 -6.861345 13.870833 -3.051617 -2.053971 -14.148506 -34.625214 28.713928 2.477808 -13.414874 7.281099 -5.931281 -31.948508 32.031043 -19.338307 -37.094668 -43.563429 -2.589976 8.835230 -14.464012 6.163346 -8.400017 14.218624 -7.724792 -10.950192 -61.547487 72.874477 -52.213124 46.218416 13.475813 -16.226653 
0.074477 0.259445 1.026897 101.482895 0.584872 93.264106 3.919769 0.997758 -5.571030 0.018396 -11.050772 5.920244 -2.759946 10.494431 -3.949599 0.000000 -0.000000 0.000000 -2.225913 -7.859402 -7.769431 -0.446414 -5.842698 10.263200 4.497839 -14.952307 0.324528 0.000000 -0.000000 0.000000 0.494589 2.801989 9.210800 4.041731 -1.594373 -5.748011 6.490457 -0.404494 6.027963 -7.030965 13.715412 -3.058631 -1.909057 -13.972387 -34.643267 28.713703 2.082691 -12.584647 7.121883 -5.054430 -32.030835 32.416689 -19.865972 -37.484292 -43.726822 -2.520857 8.533683 -14.591155 6.447804 -8.376134 14.011873 -7.341323 -11.382002 -62.728814 72.562358 -53.522821 46.215861 13.520272 -16.248255 
0.072553 0.258509 1.026884 100.797998 0.593682 93.501199 3.852895 1.096985 -5.672928 0.320108 -10.450968 5.527387 -2.813339 10.423239 -3.685394 0.000000 -0.000000 0.000000 -2.115245 -7.656845 -8.229038 -0.514605 -5.633566 10.132957 4.582457 -14.603921 0.489805 0.000000 -0.000000 0.000000 0.518198 2.718146 9.296020 3.882904 -1.594759 -5.421884 6.390649 -0.256371 5.720924 -6.960562 13.710882 -2.476793 -1.524751 -14.175780 -34.353336 28.673626 1.831366 -13.138182 6.985474 -6.091361 -31.749047 32.441927 -19.680267 -36.860624 -44.100997 -2.671458 8.978260 -14.622532 6.460427 -8.080326 13.964398 -7.383774 -11.458717 -63.873792 72.188444 -54.739805 46.326330 13.624594 -16.242315 
0.070850 0.257433 1.026742 100.189314 0.671776 93.679509 3.919094 1.288892 -5.659720 0.521160 -10.078413 5.058712 -2.819152 10.496105 -3.404202 0.000000 -0.000000 0.000000 -1.925635 -7.475058 -8.618654 -0.568722 -5.489023 10.073870 4.574117 -14.419494 0.708965 0.000000 -0.000000 0.000000 0.555945 2.555224 9.519350 3.843556 -1.681048 -5.166237 6.334500 -0.362680 5.691405 -6.921939 13.413470 -2.200491 -1.522851 -14.294297 -34.449738 28.580461 1.655260 -13.237780 6.703824 -6.151215 -31.555100 32.539383 -19.921104 -36.628845 -44.181924 -2.606141 9.059552 -14.874038 6.482585 -8.135473 14.027317 -7.266565 -11.584151 -65.182912 72.066300 -55.912994 46.282635 13.757551 -16.343277 
0.068708 0.256254 1.026696 99.637574 0.742254 93.793449 3.984657 1.519493 -5.814816 0.617520 -9.815412 4.958465 -2.889804 10.591834 -3.309102 0.000000 -0.000000 0.000000 -1.783072 -7.334278 -8.889645 -0.488827 -5.196489 9.845774 4.471999 -14.309235 0.962635 0.000000 -0.000000 0.000000 0.604240 2.364487 10.004570 3.791901 -1.891695 -5.305332 6.245680 -0.518114 5.936808 -6.965428 13.143932 -2.286821 -1.459441 -14.090946 -34.306158 28.227361 1.277231 -12.464617 6.872502 -5.436981 -31.652648 32.716956 -20.226457 -36.904023 -43.835668 -2.839691 8.638110 -14.851653 6.647244 -8.160506 13.851441 -7.124805 -11.902098 -66.219030 71.930668 -57.054911 46.031107 13.780009 -16.470552 
